<svg width="10" height="11" viewBox="0 0 10 11" fill="none" xmlns="http://www.w3.org/2000/svg">
<path d="M2.21306 8C1.21082 8.20585 0.569092 8.52215 0.569092 8.87685C0.569092 9.49715 2.53183 10 4.953 10C7.37418 10 9.33691 9.49715 9.33691 8.87685C9.33691 8.52215 8.69516 8.20585 7.69294 8" stroke="#818181" stroke-linecap="round"/>
<path d="M5.6419 7.7468C5.45707 7.9092 5.21003 8 4.95297 8C4.69586 8 4.44882 7.9092 4.26399 7.7468C2.57147 6.2504 0.303284 4.57875 1.40941 2.15187C2.00748 0.83966 3.44312 0 4.95297 0C6.46279 0 7.89841 0.839665 8.49649 2.15187C9.60123 4.5757 7.33859 6.25555 5.6419 7.7468Z" fill="#818181"/>
<path d="M6.32242 3.5C6.32242 4.19035 5.70915 4.75 4.95265 4.75C4.19616 4.75 3.58289 4.19035 3.58289 3.5C3.58289 2.80964 4.19616 2.25 4.95265 2.25C5.70915 2.25 6.32242 2.80964 6.32242 3.5Z" fill="white"/>
</svg>
